<!DOCTYPE svg PUBLIC "-//W3C//DTD SVG 1.1//EN" "http://www.w3.org/Graphics/SVG/1.1/DTD/svg11.dtd">
<!-- Uploaded to: SVG Repo, www.svgrepo.com, Transformed by: SVG Repo Mixer Tools -->
<svg height="800px" width="800px" version="1.1" id="Layer_1" xmlns="http://www.w3.org/2000/svg" xmlns:xlink="http://www.w3.org/1999/xlink" viewBox="0 0 504.322 504.322" xml:space="preserve" fill="#000000">
<g id="SVGRepo_bgCarrier" stroke-width="0"/>
<g id="SVGRepo_tracerCarrier" stroke-linecap="round" stroke-linejoin="round"/>
<g id="SVGRepo_iconCarrier"> <path style="fill:#1a73e8;" d="M253.575,431.788l-116.907-26.453c-19.627-5.12-30.72-21.333-27.307-39.253 c3.413-18.773,19.627-29.867,39.253-28.16l53.76,6.827c0,0,13.653,3.413,17.067-11.093c3.413-13.653-13.653-16.213-13.653-16.213 l-103.253-23.04c-19.627-5.12-30.72-21.333-27.307-39.253c3.413-18.773,19.627-29.867,39.253-28.16l87.893,11.093 c0,0,13.653,3.413,17.067-8.533s-14.507-13.653-14.507-13.653l-68.267-15.36c-19.627-5.12-30.72-21.333-27.307-39.253 c3.413-18.773,19.627-29.867,39.253-28.16l53.76,6.827c0,0,14.507,3.413,17.067-10.24c1.707-9.387-13.653-14.507-13.653-14.507 l-34.133-8.533c-19.627-5.12-30.72-21.333-27.307-39.253c3.413-18.773,19.627-29.867,39.253-28.16l36.693,4.267v-4.266 c1.707-20.48,15.36-34.133,34.133-34.133s32.427,13.653,34.133,34.133v5.12l36.693-4.267c20.48-2.56,36.693,9.387,39.253,27.307 c3.413,18.773-7.68,34.987-27.307,39.253l-34.133,7.68c0,0-17.067,2.56-14.507,15.36c3.413,12.8,17.067,10.24,17.067,10.24 l53.76-6.827c20.48-2.56,36.693,9.387,39.253,27.307c3.413,18.773-7.68,34.987-27.307,39.253l-69.973,16.213 c0,0-15.36,3.413-12.8,14.507c2.56,11.093,17.067,7.68,17.067,7.68l87.893-11.093c20.48-2.56,36.693,9.387,39.253,27.307 c3.413,18.773-7.68,34.987-27.307,39.253l-104.107,23.04c0,0-16.213,3.413-12.8,16.213c3.413,13.653,17.067,11.093,17.067,11.093 l53.76-6.827c20.48-2.56,36.693,9.387,39.253,27.307c3.413,18.773-7.68,34.987-27.307,39.253L253.575,431.788z"/> <path style="fill:#ffffff;" d="M253.575,504.322c-2.56,0-4.267-1.707-4.267-4.267v-64.853c-10.24-1.707-37.547-8.533-113.493-25.6 c-22.187-5.973-34.987-23.04-30.72-44.373c3.413-20.48,22.187-33.28,44.373-31.573l53.76,6.827c1.707,0,10.24,1.707,11.947-7.68 c0.853-2.56,0-4.267-0.853-5.973c-2.56-3.413-7.68-5.12-9.387-5.12l-104.107-23.04c-22.187-5.973-34.987-23.04-30.72-44.373 c3.413-20.48,22.187-33.28,44.373-31.573l87.893,11.093c1.707,0.853,5.973,0.853,9.387-0.853c1.707-0.853,2.56-2.56,3.413-5.12 c0.853-2.56,0-3.413-0.853-4.267c-1.707-2.56-7.68-4.267-10.24-4.267l-69.12-15.36c-22.187-5.973-34.987-23.04-30.72-44.373 c3.413-20.48,22.187-33.28,44.373-31.573l53.76,6.827c0.853,0,5.12,0.853,8.533-0.853c1.707-0.853,2.56-3.413,3.413-5.973 c0.853-5.12-8.533-8.533-11.093-9.387l-34.133-8.533c-22.187-5.973-34.987-23.04-30.72-44.373 c3.413-20.48,22.187-33.28,44.373-31.573l31.573,4.267l0,0c1.707-23.04,17.067-38.4,38.4-38.4s36.693,15.36,38.4,38.4l0,0 l31.573-4.267c23.04-2.56,40.96,10.24,44.373,31.573c3.413,20.48-9.387,39.253-30.72,44.373l-34.133,7.68 c-2.56,0-7.68,1.707-10.24,5.12c-0.853,0.853-1.707,2.56-0.853,5.12c1.707,8.533,10.24,7.68,11.947,6.827l53.76-6.827 c23.04-2.56,40.96,10.24,44.373,31.573c3.413,20.48-9.387,39.253-30.72,44.373l-69.973,16.213c-1.707,0-6.827,2.56-9.387,5.12 c-0.853,0.853-0.853,2.56-0.853,3.413c1.707,6.827,11.947,5.12,11.947,5.12l87.893-11.093c23.04-2.56,40.96,10.24,44.373,31.573 c3.413,20.48-9.387,39.253-30.72,44.373l-104.107,23.04c-1.707,0-6.827,1.707-9.387,5.12c-0.853,1.707-1.707,3.413-0.853,5.973 c1.707,8.533,10.24,7.68,11.947,7.68l53.76-6.827c23.04-2.56,40.96,10.24,44.373,31.573c3.413,20.48-9.387,39.253-30.72,44.373 l-82.773,18.773c-2.56,0.853-4.267-0.853-5.12-3.413c-0.853-2.56,0.853-4.267,3.413-5.12l82.773-18.773 c17.067-4.267,27.307-17.92,24.747-34.987c-2.56-16.213-17.067-25.6-34.987-23.893l-53.76,6.827 c-5.973,0.853-18.773-0.853-21.333-13.653c-0.853-4.267-0.853-9.387,1.707-12.8c4.267-6.827,13.653-8.533,14.507-8.533 l103.253-23.04c17.067-4.267,27.307-17.92,24.747-34.987c-2.56-16.213-17.067-26.453-34.987-23.893l-87.893,11.093 c-5.973,0.853-18.773,0.853-21.333-11.093c-0.853-3.413,0-7.68,1.707-10.24c4.267-6.827,13.653-8.533,14.507-9.387l69.973-15.36 c17.067-4.267,27.307-17.92,24.747-34.987c-2.56-16.213-17.067-26.453-34.987-23.893l-53.76,6.827 c-5.973,0.853-18.773,0-22.187-13.653c-0.853-4.267,0-8.533,1.707-11.947c5.12-6.827,14.507-8.533,15.36-8.533l34.133-7.68 C350,98.988,360.24,85.334,357.68,68.268c-2.56-16.213-17.067-26.453-34.987-23.893L286,48.641c-0.853,0-2.56,0-3.413-0.853 c-0.853-0.853-1.707-1.707-1.707-3.413v-5.12c-0.853-17.92-12.8-29.867-29.867-29.867c-16.213,0-29.013,11.947-29.867,29.867v4.267 c0,0.853-0.853,2.56-1.707,3.413c-0.853,0.853-2.56,0.853-3.413,0.853l-36.693-4.267c-17.92-1.707-31.573,7.68-34.987,23.893 c-2.56,16.213,6.827,29.867,24.747,34.987l34.133,8.533c7.68,2.56,19.627,8.533,17.067,19.627c-0.853,5.12-3.413,8.533-7.68,11.093 c-6.827,4.267-14.507,2.56-15.36,2.56l-52.907-6.827c-17.92-1.707-31.573,7.68-34.987,23.893 c-2.56,16.213,6.827,29.867,24.747,34.987l68.267,15.36l0,0c0.853,0,11.093,0.853,15.36,7.68c1.707,2.56,3.413,5.973,1.707,11.093 c-0.853,4.267-3.413,7.68-7.68,10.24c-6.827,3.413-14.507,1.707-15.36,1.707l-87.04-11.093c-17.92-1.707-31.573,7.68-34.987,23.893 c-2.56,16.213,6.827,29.867,24.747,34.987l103.253,23.04c0.853,0,10.24,1.707,14.507,8.533c2.56,3.413,3.413,7.68,1.707,12.8 c-3.413,12.8-14.507,15.36-22.187,13.653l-53.76-6.827c-17.92-1.707-31.573,7.68-34.987,23.893 c-2.56,16.213,6.827,29.867,24.747,34.987c0,0,88.747,20.48,111.787,24.747V56.322c0-2.56,1.707-4.267,4.267-4.267 s4.267,1.707,4.267,4.267v443.733C257.841,502.615,256.135,504.322,253.575,504.322z"/> </g>
</svg>